<svg xmlns="http://www.w3.org/2000/svg" width="360" height="420" viewBox="0 0 360 420"><defs><radialGradient id="p" cx="30%" cy="25%" r="70%"><stop stop-color="#fff" stop-opacity=".8"/><stop offset=".45" stop-color="#ff85c1"/><stop offset="1" stop-color="#ff35a0"/></radialGradient><radialGradient id="b" cx="30%" cy="25%" r="70%"><stop stop-color="#fff" stop-opacity=".8"/><stop offset=".45" stop-color="#8ed6ff"/><stop offset="1" stop-color="#3b9eef"/></radialGradient><radialGradient id="y" cx="30%" cy="25%" r="70%"><stop stop-color="#fff" stop-opacity=".8"/><stop offset=".45" stop-color="#ffe46a"/><stop offset="1" stop-color="#ffc01d"/></radialGradient><radialGradient id="g" cx="30%" cy="25%" r="70%"><stop stop-color="#fff" stop-opacity=".8"/><stop offset=".45" stop-color="#9beb54"/><stop offset="1" stop-color="#51c63b"/></radialGradient><radialGradient id="v" cx="30%" cy="25%" r="70%"><stop stop-color="#fff" stop-opacity=".8"/><stop offset=".45" stop-color="#b17cff"/><stop offset="1" stop-color="#7b3fe4"/></radialGradient></defs><circle cx="170" cy="95" r="64" fill="url(#p)"/><circle cx="230" cy="125" r="62" fill="url(#v)"/><circle cx="116" cy="155" r="62" fill="url(#y)"/><circle cx="184" cy="186" r="64" fill="url(#p)"/><circle cx="254" cy="205" r="61" fill="url(#b)"/><circle cx="150" cy="270" r="58" fill="url(#g)"/><path d="M170 160 C155 250 130 330 110 410M230 190 C220 270 205 335 190 410M116 218 C120 292 128 350 135 410M254 266 C235 320 225 365 215 410M184 250 C180 310 175 360 172 410" stroke="#8c7a8d" stroke-width="2" fill="none"/></svg>