<svg xmlns="http://www.w3.org/2000/svg" width="980" height="720" viewBox="0 0 980 720">
<defs>
<filter id="s" x="-20%" y="-20%" width="140%" height="140%"><feDropShadow dx="0" dy="18" stdDeviation="16" flood-color="#1b1035" flood-opacity=".18"/></filter>
<radialGradient id="g1" cx="32%" cy="28%" r="70%"><stop offset="0" stop-color="#fff" stop-opacity=".9"/><stop offset=".45" stop-color="#ff8ac4"/><stop offset="1" stop-color="#ec2b89"/></radialGradient>
<radialGradient id="g2" cx="32%" cy="28%" r="70%"><stop offset="0" stop-color="#fff" stop-opacity=".9"/><stop offset=".45" stop-color="#9e71ff"/><stop offset="1" stop-color="#6533d5"/></radialGradient>
<radialGradient id="g3" cx="32%" cy="28%" r="70%"><stop offset="0" stop-color="#fff" stop-opacity=".9"/><stop offset=".45" stop-color="#67c7ff"/><stop offset="1" stop-color="#1c8be3"/></radialGradient>
<radialGradient id="g4" cx="32%" cy="28%" r="70%"><stop offset="0" stop-color="#fff" stop-opacity=".9"/><stop offset=".45" stop-color="#fff071"/><stop offset="1" stop-color="#f5b418"/></radialGradient>
<radialGradient id="g5" cx="32%" cy="28%" r="70%"><stop offset="0" stop-color="#fff" stop-opacity=".9"/><stop offset=".45" stop-color="#9cea4f"/><stop offset="1" stop-color="#45bd29"/></radialGradient>
</defs>
<rect width="980" height="720" fill="none"/>
<ellipse cx="585" cy="606" rx="322" ry="56" fill="#000" opacity=".06"/>
<g filter="url(#s)">
<circle cx="315" cy="485" r="58" fill="url(#g5)"/><circle cx="365" cy="425" r="61" fill="url(#g4)"/><circle cx="410" cy="360" r="63" fill="url(#g1)"/>
<circle cx="470" cy="305" r="66" fill="url(#g1)"/><circle cx="545" cy="265" r="70" fill="url(#g2)"/><circle cx="632" cy="255" r="68" fill="url(#g2)"/>
<circle cx="715" cy="280" r="66" fill="url(#g3)"/><circle cx="785" cy="330" r="62" fill="url(#g3)"/><circle cx="835" cy="395" r="60" fill="url(#g2)"/>
<circle cx="860" cy="470" r="58" fill="url(#g2)"/><circle cx="806" cy="520" r="56" fill="url(#g2)"/><circle cx="735" cy="540" r="55" fill="url(#g3)"/>
<circle cx="375" cy="520" r="55" fill="url(#g5)"/><circle cx="450" cy="535" r="53" fill="url(#g5)"/>
<path d="M450 544 C445 315 575 220 725 277 C820 312 868 404 842 512" fill="none" stroke="#2a1454" stroke-width="2" opacity=".08"/>
</g>
<g filter="url(#s)">
<path d="M555 548 h95 v-300 h-78 q-10 45-70 52 v70 h53z" fill="#fffef7" stroke="#f0d99e" stroke-width="10"/>
<circle cx="600" cy="300" r="8" fill="#fff4b9"/><circle cx="600" cy="390" r="8" fill="#fff4b9"/><circle cx="600" cy="480" r="8" fill="#fff4b9"/>
</g>
<g filter="url(#s)" transform="translate(690 410)">
<circle cx="55" cy="58" r="44" fill="#e9d4b0"/><circle cx="18" cy="20" r="18" fill="#e9d4b0"/><circle cx="90" cy="20" r="18" fill="#e9d4b0"/>
<circle cx="40" cy="50" r="6" fill="#3e2a1c"/><circle cx="68" cy="50" r="6" fill="#3e2a1c"/><ellipse cx="55" cy="64" rx="13" ry="9" fill="#f7e7cb"/>
<circle cx="55" cy="68" r="4" fill="#3e2a1c"/><ellipse cx="20" cy="118" rx="24" ry="30" fill="#e9d4b0"/><ellipse cx="92" cy="118" rx="24" ry="30" fill="#e9d4b0"/>
</g>
<circle cx="170" cy="205" r="7" fill="#ff4da6"/><circle cx="910" cy="120" r="12" fill="#7b3fe4"/><circle cx="255" cy="300" r="8" fill="#31a9e9"/>
<path d="M210 145 l7 13 14 2-10 10 2 14-13-7-12 7 2-14-10-10 14-2z" fill="#ffd84d"/>
</svg>